<?xml version="1.0" encoding="utf-8"?>
<!-- Generator: Adobe Illustrator 26.0.1, SVG Export Plug-In . SVG Version: 6.00 Build 0)  -->
<svg version="1.1" id="Layer_1" xmlns="http://www.w3.org/2000/svg" xmlns:xlink="http://www.w3.org/1999/xlink" x="0px" y="0px"
	 viewBox="0 0 200 200" style="enable-background:new 0 0 200 200;" xml:space="preserve">
<style type="text/css">
	.st0{fill:url(#SVGID_1_);}
	.st1{fill:url(#SVGID_00000036970432288706630640000015012755717691276957_);}
</style>
<symbol  id="Comments" viewBox="-32 -27.91 64 55.81">
	<g>
		<linearGradient id="SVGID_1_" gradientUnits="userSpaceOnUse" x1="-32" y1="0" x2="32" y2="0">
			<stop  offset="0" style="stop-color:#53B262"/>
			<stop  offset="1" style="stop-color:#0988CA"/>
		</linearGradient>
		<path class="st0" d="M0,27.91c17.67,0,32-11.56,32-25.82c0-5.69-2.29-10.95-6.15-15.21l5.95-14.78l-25.2,5.07
			c-2.63-0.07-5.58-0.71-8.54-0.79c-0.33-0.01-0.67-0.01-1-0.01C-20.08-23.64-32-11.9-32,2.09C-32,16.35-17.67,27.91,0,27.91
			 M0,20.91c-13.79,0-25-8.44-25-18.82c0-10.68,9.48-18.73,22.06-18.73c0.27,0,0.54,0,0.82,0.01c1.18,0.03,2.47,0.19,3.84,0.36
			c1.51,0.19,3.08,0.38,4.69,0.43l0.79,0.02l0.78-0.16l12.49-2.51l-1.11,2.75l-1.64,4.07l2.94,3.25C22.64-6.24,25-2.64,25,2.09
			C25,12.47,13.79,20.91,0,20.91L0,20.91z"/>
	</g>
</symbol>
<symbol  id="Email" viewBox="-33 -24 66 48">
	
		<linearGradient id="SVGID_00000073683345969076143060000004322734615767997874_" gradientUnits="userSpaceOnUse" x1="-33" y1="0" x2="33" y2="0">
		<stop  offset="0" style="stop-color:#53B262"/>
		<stop  offset="1" style="stop-color:#0988CA"/>
	</linearGradient>
	<path style="fill:url(#SVGID_00000073683345969076143060000004322734615767997874_);" d="M-33,24v-48h66v48H-33z M0-6.75l8.32,5.99
		L25.79-19H-25.8L-8.32-0.76L0-6.75z M0,1.88L-21.02,17h42.03L0,1.88z M-10.78,1.01L-28-16.96V13.4L-10.78,1.01z M28-16.96
		L10.78,1.01L28,13.4V-16.96z"/>
</symbol>
<use xlink:href="#Email"  width="66" height="48" id="XMLID_00000067917838854898130310000010050396976176775044_" x="-33" y="-24" transform="matrix(1.7237 0 0 -1.5145 100.0275 92.0354)" style="overflow:visible;"/>
<use xlink:href="#Comments"  width="64" height="55.81" id="XMLID_00000116198139663964621450000011872357607035794843_" x="-32" y="-27.91" transform="matrix(3.082 0 0 -3.5376 100.0275 99.9921)" style="overflow:visible;"/>
</svg>
