<?xml version="1.0" encoding="utf-8"?>
<!-- Generator: Adobe Illustrator 26.0.1, SVG Export Plug-In . SVG Version: 6.00 Build 0)  -->
<svg version="1.1" id="Layer_1" xmlns="http://www.w3.org/2000/svg" xmlns:xlink="http://www.w3.org/1999/xlink" x="0px" y="0px"
	 viewBox="0 0 200 200" style="enable-background:new 0 0 200 200;" xml:space="preserve">
<style type="text/css">
	.st0{fill:#FFFFFF;}
	.st1{fill:#0988CA;}
</style>
<rect x="0.11" class="st0" width="200" height="200"/>
<path class="st1" d="M75.17,72.6c3.12-1.26,6.25-2.51,9.37-3.79c6.07-2.49,12.13-5,18.19-7.5c11.31-4.66,22.62-9.31,33.88-14.08
	c4.72-2,9.47-3.94,14.2-5.91c4.22-1.76,8.44-3.53,12.66-5.28c2.37-0.98,4.7-2.06,7.28-2.4c1.57-0.21,3.14-0.3,4.7-0.08
	c2.65,0.37,4.6,2.43,5.17,4.75c0.45,1.84,0.42,3.68,0.2,5.5c-0.82,6.87-1.8,13.72-2.91,20.56c-0.9,5.6-1.71,11.22-2.58,16.82
	c-0.89,5.74-1.8,11.48-2.69,17.23c-0.76,4.92-1.51,9.84-2.26,14.77c-0.3,1.36-0.57,2.72-0.61,4.12c-0.1,0.07-0.17,0.16-0.1,0.29
	c-0.17,0.45-0.19,0.92-0.17,1.4c-0.1,0.06-0.16,0.14-0.08,0.26c-0.52,3.13-1.05,6.27-1.56,9.4c-1,6.19-2.01,12.37-2.96,18.56
	c-0.34,2.23-0.85,4.44-0.97,6.7c-0.1,0.08-0.17,0.17-0.11,0.31c-0.4,2.21-0.73,4.44-1.57,6.54c-1.17,2.91-3.02,5.18-6.15,6.13
	c-1.91,0.58-3.84,0.39-5.75-0.01c-3.79-0.8-7.24-2.45-10.62-4.28c-3.06-1.66-5.73-3.88-8.62-5.78c-5.76-3.77-11.43-7.68-17.24-11.36
	c-5.31-3.36-10.35-7.09-15.46-10.72c-1.97-1.4-3.88-2.9-5.67-4.52c-2.49-2.25-3.58-5.06-2.56-8.41c0.44-1.43,1.45-2.55,2.51-3.57
	c2.02-1.96,4.1-3.86,6.17-5.78c3.55-3.31,7.11-6.6,10.64-9.92c2.82-2.66,5.61-5.36,8.41-8.04c0.12,0,0.18-0.07,0.19-0.19
	c0,0,0.07-0.06,0.07-0.06c0.13-0.01,0.2-0.08,0.22-0.21c0,0,0.06-0.05,0.06-0.05c0.14-0.01,0.21-0.09,0.23-0.22
	c0,0,0.05-0.04,0.05-0.04c0.14-0.02,0.22-0.09,0.24-0.23c0,0,0.04-0.04,0.04-0.04c0.14-0.02,0.22-0.1,0.24-0.24
	c0,0,0.03-0.03,0.03-0.03c0.14-0.02,0.23-0.1,0.25-0.24c0.26-0.12,0.46-0.3,0.58-0.57c0.22-0.17,0.45-0.31,0.65-0.5
	c5.51-5.26,10.97-10.58,16.34-15.98c0.36-0.36,0.72-0.72,1.04-1.11c1.41-1.72,2.7-3.53,3.23-5.74c0.39-1.63-0.43-2.51-2.09-2.28
	c-0.97,0.13-1.88,0.43-2.78,0.8c-2.57,1.07-4.97,2.46-7.27,4c-6.95,4.63-13.88,9.3-20.82,13.96c-0.19,0.13-0.34,0.3-0.51,0.46
	c-1.36,0.7-2.56,1.65-3.82,2.5c-11.19,7.53-22.38,15.06-33.56,22.59c-1.25,0.84-2.44,1.79-3.87,2.33c-1.11,0.42-2.22,0.83-3.41,0.97
	c-0.17,0.02-0.34,0.05-0.51,0.07c-0.23,0.04-0.45,0.09-0.68,0.13c0,0-0.09-0.05-0.09-0.05l-0.08,0.07
	c-0.38,0.02-0.76,0.05-1.15,0.07c-0.17,0.01-0.34,0.02-0.51,0.02c-0.85,0-1.7,0-2.55,0c-0.17-0.01-0.33-0.01-0.5-0.02
	c-0.48-0.03-0.95-0.06-1.43-0.08c0,0-0.08-0.07-0.08-0.07l-0.08,0.05c-0.3-0.14-0.62-0.2-0.95-0.15c-0.07-0.05-0.15-0.06-0.24-0.03
	c-3.49-0.35-6.76-1.54-10.07-2.57c-4.94-1.54-9.87-3.13-14.8-4.73c-2.1-0.68-4.17-1.45-6.28-2.12c-2.25-0.72-3.58-2.21-3.97-4.54
	c0.05-0.08,0.04-0.16-0.04-0.22c0-0.21,0.01-0.42,0.01-0.63c0.07-0.07,0.09-0.14,0.04-0.23c0.4-2.46,2.21-3.75,4.1-5
	c2.4-1.59,5.12-2.49,7.74-3.59c5-2.1,10.03-4.12,15.04-6.17c5.83-2.39,11.66-4.77,17.49-7.17C67.52,75.8,71.34,74.19,75.17,72.6z"/>
</svg>
