<?xml version="1.0" encoding="utf-8"?>
<!-- Generator: Adobe Illustrator 26.0.1, SVG Export Plug-In . SVG Version: 6.00 Build 0)  -->
<svg version="1.1" id="Layer_1" xmlns="http://www.w3.org/2000/svg" xmlns:xlink="http://www.w3.org/1999/xlink" x="0px" y="0px"
	 viewBox="0 0 200 200" style="enable-background:new 0 0 200 200;" xml:space="preserve">
<style type="text/css">
	.st0{fill:#0988CA;}
	.st1{fill:none;}
	.st2{fill:#FFFFFF;}
	.st3{fill:#32A7DB;}
</style>
<rect class="st0" width="200" height="200"/>
<g>
	<path class="st1" d="M0,0c66.69,0,133.38,0,200.08,0c0,66.68,0,133.37,0,200.08c-66.68,0-133.38,0-200.08,0C0,133.41,0,66.71,0,0z
		 M13.69,59.73c-0.5,0.82-0.83,1.71-1.21,2.59c-2.81,6.5-4.89,13.23-6.17,20.2c-0.75,4.06-1.25,8.16-1.44,12.28
		c-0.22,4.99-0.18,9.98,0.35,14.96c0.39,3.7,0.99,7.38,1.79,11.02c1.84,8.36,4.79,16.31,8.76,23.86c5.42,10.31,12.54,19.3,21.28,27
		c5.41,4.77,11.27,8.89,17.61,12.32c13.29,7.2,27.51,10.96,42.59,11.48c3.88,0.14,7.77-0.01,11.63-0.37
		c3.86-0.36,7.69-0.95,11.49-1.77c9.77-2.12,18.97-5.69,27.62-10.71c4.85-2.82,9.42-6.05,13.7-9.67c3.13-2.65,6.06-5.51,8.85-8.53
		c1.63-1.76,3.03-3.7,4.56-5.53c1.74-2.08,3.3-4.28,4.8-6.53c3.65-5.49,6.53-11.38,8.94-17.5c0.5-0.89,0.78-1.87,1.12-2.82
		c2.22-6.26,3.78-12.67,4.65-19.25c0.49-3.7,0.77-7.41,0.85-11.13c0.07-3.05-0.07-6.09-0.3-9.14c-0.19-2.46-0.46-4.9-0.84-7.33
		c-0.87-5.54-2.23-10.97-4.05-16.28c-2.62-7.65-6.21-14.82-10.63-21.57c-4.98-7.6-10.98-14.31-17.92-20.18
		c-5.5-4.66-11.45-8.65-17.84-11.96c-5.35-2.77-10.91-5-16.68-6.71c-6.33-1.88-12.8-3.04-19.38-3.62c-2.86-0.25-5.72-0.24-8.59-0.25
		c-2.99-0.02-5.97,0.15-8.94,0.46c-3.67,0.39-7.31,0.97-10.92,1.78c-7.67,1.7-15.02,4.32-22.04,7.84
		C52.04,17.3,47.07,20.42,42.37,24c-6.95,5.3-13.06,11.44-18.35,18.39c-3.11,4.08-5.77,8.44-8.2,12.94
		C15.05,56.77,14.26,58.2,13.69,59.73z"/>
	<path class="st2" d="M74.77,72.26c3.12-1.26,6.25-2.51,9.37-3.79c6.07-2.49,12.13-5,18.19-7.5c11.31-4.66,22.62-9.31,33.88-14.08
		c4.72-2,9.47-3.94,14.2-5.91c4.22-1.76,8.44-3.53,12.66-5.28c2.37-0.98,4.7-2.06,7.28-2.4c1.57-0.21,3.14-0.3,4.7-0.08
		c2.65,0.37,4.6,2.43,5.17,4.75c0.45,1.84,0.42,3.68,0.2,5.5c-0.82,6.87-1.8,13.72-2.91,20.56c-0.9,5.6-1.71,11.22-2.58,16.82
		c-0.89,5.74-1.8,11.48-2.69,17.23c-0.76,4.92-1.51,9.84-2.26,14.77c-0.3,1.36-0.57,2.72-0.61,4.12c-0.1,0.07-0.17,0.16-0.1,0.29
		c-0.17,0.45-0.19,0.92-0.17,1.4c-0.1,0.06-0.16,0.14-0.08,0.26c-0.52,3.13-1.05,6.27-1.56,9.4c-1,6.19-2.01,12.37-2.96,18.56
		c-0.34,2.23-0.85,4.44-0.97,6.7c-0.1,0.08-0.17,0.17-0.11,0.31c-0.4,2.21-0.73,4.44-1.57,6.54c-1.17,2.91-3.02,5.18-6.15,6.13
		c-1.91,0.58-3.84,0.39-5.75-0.01c-3.79-0.8-7.24-2.45-10.62-4.28c-3.06-1.66-5.73-3.88-8.62-5.78
		c-5.76-3.77-11.43-7.68-17.24-11.36c-5.31-3.36-10.35-7.09-15.46-10.72c-1.97-1.4-3.88-2.9-5.67-4.52
		c-2.49-2.25-3.58-5.06-2.56-8.41c0.44-1.43,1.45-2.55,2.51-3.57c2.02-1.96,4.1-3.86,6.17-5.78c3.55-3.31,7.11-6.6,10.64-9.92
		c2.82-2.66,5.61-5.36,8.41-8.04c0.12,0,0.18-0.07,0.19-0.19c0,0,0.07-0.06,0.07-0.06c0.13-0.01,0.2-0.08,0.22-0.21
		c0,0,0.06-0.05,0.06-0.05c0.14-0.01,0.21-0.09,0.23-0.22c0,0,0.05-0.04,0.05-0.04c0.14-0.02,0.22-0.09,0.24-0.23
		c0,0,0.04-0.04,0.04-0.04c0.14-0.02,0.22-0.1,0.24-0.24c0,0,0.03-0.03,0.03-0.03c0.14-0.02,0.23-0.1,0.25-0.24
		c0.26-0.12,0.46-0.3,0.58-0.57c0.22-0.17,0.45-0.31,0.65-0.5c5.51-5.26,10.97-10.58,16.34-15.98c0.36-0.36,0.72-0.72,1.04-1.11
		c1.41-1.72,2.7-3.53,3.23-5.74c0.39-1.63-0.43-2.51-2.09-2.28c-0.97,0.13-1.88,0.43-2.78,0.8c-2.57,1.07-4.97,2.46-7.27,4
		c-6.95,4.63-13.88,9.3-20.82,13.96c-0.19,0.13-0.34,0.3-0.51,0.46c-1.36,0.7-2.56,1.65-3.82,2.5
		c-11.19,7.53-22.38,15.06-33.56,22.59c-1.25,0.84-2.44,1.79-3.87,2.33c-1.11,0.42-2.22,0.83-3.41,0.97
		c-0.17,0.02-0.34,0.05-0.51,0.07c-0.23,0.04-0.45,0.09-0.68,0.13c0,0-0.09-0.05-0.09-0.05l-0.08,0.07
		c-0.38,0.02-0.76,0.05-1.15,0.07c-0.17,0.01-0.34,0.02-0.51,0.02c-0.85,0-1.7,0-2.55,0c-0.17-0.01-0.33-0.01-0.5-0.02
		c-0.48-0.03-0.95-0.06-1.43-0.08c0,0-0.08-0.07-0.08-0.07l-0.08,0.05c-0.3-0.14-0.62-0.2-0.95-0.15c-0.07-0.05-0.15-0.06-0.24-0.03
		c-3.49-0.35-6.76-1.54-10.07-2.57c-4.94-1.54-9.87-3.13-14.8-4.73c-2.1-0.68-4.17-1.45-6.28-2.12c-2.25-0.72-3.58-2.21-3.97-4.54
		c0.05-0.08,0.04-0.16-0.04-0.22c0-0.21,0.01-0.42,0.01-0.63c0.07-0.07,0.09-0.14,0.04-0.23c0.4-2.46,2.21-3.75,4.1-5
		c2.4-1.59,5.12-2.49,7.74-3.59c5-2.09,10.03-4.12,15.04-6.17c5.83-2.39,11.66-4.77,17.49-7.17C67.11,75.46,70.94,73.85,74.77,72.26
		z"/>
	<path class="st3" d="M66.78,114.37c0.11-0.02,0.23-0.03,0.34-0.05C67.03,114.48,66.92,114.5,66.78,114.37z"/>
	<path class="st3" d="M63.08,114.53c0.11,0,0.22,0.01,0.33,0.01C63.3,114.68,63.19,114.68,63.08,114.53z"/>
	<path class="st3" d="M65.12,114.54c0.11-0.01,0.23-0.01,0.34-0.02C65.35,114.67,65.24,114.68,65.12,114.54z"/>
	<path class="st3" d="M104.65,100.05c-0.02,0.1-0.07,0.15-0.17,0.16C104.54,100.15,104.59,100.1,104.65,100.05z"/>
	<path class="st3" d="M104.46,100.23c-0.02,0.09-0.07,0.15-0.16,0.16C104.35,100.33,104.4,100.28,104.46,100.23z"/>
	<path class="st3" d="M104.27,100.41c-0.01,0.09-0.07,0.14-0.16,0.16C104.16,100.52,104.22,100.47,104.27,100.41z"/>
	<path class="st3" d="M104.08,100.6c-0.01,0.09-0.06,0.14-0.15,0.15C103.98,100.7,104.03,100.65,104.08,100.6z"/>
	<path class="st3" d="M103.89,100.78c-0.01,0.09-0.06,0.14-0.15,0.14C103.79,100.88,103.84,100.83,103.89,100.78z"/>
	<path class="st3" d="M103.7,100.97c0,0.08-0.04,0.12-0.12,0.13C103.6,101.04,103.64,101,103.7,100.97z"/>
	<path class="st3" d="M37.83,104.32c0.03,0.06,0.02,0.11-0.03,0.15C37.76,104.41,37.77,104.36,37.83,104.32z"/>
	<path class="st3" d="M37.79,104.89c0.05,0.04,0.06,0.09,0.02,0.14C37.76,104.99,37.75,104.95,37.79,104.89z"/>
	<path class="st3" d="M61.23,114.34c0.06-0.02,0.11-0.02,0.16,0.02C61.32,114.43,61.27,114.42,61.23,114.34z"/>
	<path class="st3" d="M62.02,114.46l0.06-0.03c0,0,0.05,0.05,0.05,0.05C62.09,114.48,62.06,114.47,62.02,114.46z"/>
	<path class="st3" d="M66.22,114.48l0.05-0.05c0,0,0.06,0.03,0.06,0.03C66.29,114.47,66.26,114.48,66.22,114.48z"/>
	<path class="st3" d="M138.08,116.49c-0.05-0.09,0-0.14,0.07-0.19C138.12,116.37,138.1,116.43,138.08,116.49z"/>
	<path class="st3" d="M137.91,117.6c-0.06-0.08-0.01-0.13,0.05-0.17C137.94,117.48,137.92,117.54,137.91,117.6z"/>
	<path class="st3" d="M134.18,140.91c-0.04-0.09,0-0.15,0.07-0.21C134.23,140.77,134.2,140.84,134.18,140.91z"/>
</g>
</svg>
