<?xml version="1.0" encoding="utf-8"?>
<!-- Generator: Adobe Illustrator 26.0.1, SVG Export Plug-In . SVG Version: 6.00 Build 0)  -->
<svg version="1.1" id="Layer_1" xmlns="http://www.w3.org/2000/svg" xmlns:xlink="http://www.w3.org/1999/xlink" x="0px" y="0px"
	 viewBox="0 0 200 200" style="enable-background:new 0 0 200 200;" xml:space="preserve">
<style type="text/css">
	.st0{fill:#FFFFFF;}
	.st1{fill:none;}
	.st2{fill:#53B262;}
</style>
<rect class="st0" width="200" height="200"/>
<g>
	<path class="st1" d="M-48.97,244.6c8.31-2.8,16.59-5.7,24.95-8.37c17.11-5.46,34.23-10.88,51.42-16.07c2.11-0.64,5-0.48,6.97,0.48
		c45.62,22.23,91.23,22.41,136.28-0.96c45.68-23.7,70.71-62.09,77.47-112.78c0.15-1.12,0.6-2.2,0.91-3.29c0,46.95,0,93.89,0,141
		C149.69,244.6,50.36,244.6-48.97,244.6z"/>
	<path class="st1" d="M92.03-55.4c-7.51,1.26-15.11,2.14-22.53,3.84C7.02-37.24-37.25,11.65-44.54,75.17
		c-3.51,30.59,2.45,59.68,17.61,86.63c1.8,3.19,2.13,5.87,0.95,9.32c-8.05,23.43-15.91,46.92-23.85,70.39
		c-0.25,0.74-0.76,1.39-1.14,2.08c0-99.55,0-199.11,0-299C-3.31-55.4,44.36-55.4,92.03-55.4z"/>
	<path class="st1" d="M249.03,78.6c-1.63-8.45-2.72-17.05-4.97-25.34c-10.29-38.04-32.39-67.55-66.21-87.64
		c-18.99-11.28-39.72-18.48-62.05-20.12c-1.27-0.09-2.52-0.59-3.77-0.91c45.58,0,91.17,0,137,0
		C249.03-10.73,249.03,33.93,249.03,78.6z"/>
	<path class="st1" d="M-12.58,206.89c3.55-10.58,6.19-20.56,10.23-29.93c4.14-9.59,3.29-17.03-2.25-26.46
		C-33.32,101.62-23.44,38.51,19.25,1.18C64.32-38.24,123.3-40.34,169.07-10.25C209,16,226.82,53.71,223.81,100.74
		c-2.27,35.58-18.42,65.1-47.11,86.24c-43.92,32.38-96.07,33.12-138.84,7.24c-1.69-1.02-4.46-1.31-6.39-0.74
		C17.12,197.66,2.85,202.14-12.58,206.89z M28.82,54.82c-0.09,10.51,2.75,19.39,7.25,27.64c20.21,37.13,47.97,65.32,89.58,78.53
		c19.43,6.17,36.95,1.19,48.44-13.03c3.61-4.47,3.32-12.15,4.51-18.41c0.15-0.8-1.36-2.32-2.43-2.88
		c-10.31-5.38-20.69-10.63-31.05-15.91c-3.76-1.92-6.5-0.77-9.05,2.48c-3.49,4.45-7.38,8.58-11.11,12.84
		c-2.12,2.42-4.49,2.97-7.58,1.62c-21.68-9.53-38-24.83-49.41-45.51c-1.78-3.23-1.49-5.74,1.11-8.5c3.41-3.61,6.64-7.46,9.37-11.59
		c1.1-1.67,1.48-4.62,0.83-6.52c-3.45-10.06-7.23-20.02-11.16-29.9c-0.8-2.01-2.41-4.22-4.25-5.21c-5.43-2.91-16.53-0.92-21.08,3.34
		C33.54,32.46,28.65,43.01,28.82,54.82z"/>
	<path class="st2" d="M28.82,54.82c-0.17-11.82,4.72-22.37,13.96-31c4.55-4.26,15.65-6.26,21.08-3.34c1.84,0.99,3.45,3.2,4.25,5.21
		c3.93,9.88,7.71,19.84,11.16,29.9c0.65,1.9,0.28,4.85-0.83,6.52c-2.73,4.13-5.96,7.98-9.37,11.59c-2.61,2.76-2.9,5.27-1.11,8.5
		c11.42,20.68,27.73,35.97,49.41,45.51c3.08,1.36,5.46,0.8,7.58-1.62c3.73-4.26,7.62-8.39,11.11-12.84c2.55-3.25,5.28-4.4,9.05-2.48
		c10.36,5.28,20.74,10.53,31.05,15.91c1.07,0.56,2.58,2.08,2.43,2.88c-1.19,6.27-0.9,13.95-4.51,18.41
		c-11.49,14.22-29.01,19.2-48.44,13.03c-41.6-13.22-69.37-41.4-89.58-78.53C31.57,74.21,28.73,65.34,28.82,54.82z"/>
</g>
<rect x="10.88" y="0.35" class="st0" width="0.6" height="0.6"/>
</svg>
